<svg width="320" height="150" viewBox="0 0 320 150" fill="none" xmlns="http://www.w3.org/2000/svg">
<path d="M320 0H0V150H320V0Z" fill="#F7931A"/>
<path d="M200.376 92.6C200.056 92.6 199.77 92.5307 199.52 92.392C199.274 92.248 199.082 92.0533 198.944 91.808C198.805 91.5573 198.736 91.272 198.736 90.952C198.736 90.6373 198.805 90.3547 198.944 90.104C199.082 89.8533 199.274 89.6587 199.52 89.52C199.77 89.376 200.056 89.304 200.376 89.304C200.69 89.304 200.97 89.376 201.216 89.52C201.466 89.6587 201.661 89.8533 201.8 90.104C201.938 90.3547 202.008 90.6373 202.008 90.952C202.008 91.272 201.938 91.5573 201.8 91.808C201.661 92.0533 201.466 92.248 201.216 92.392C200.97 92.5307 200.69 92.6 200.376 92.6ZM200.376 92.272C200.76 92.272 201.069 92.1493 201.304 91.904C201.538 91.6587 201.656 91.3413 201.656 90.952C201.656 90.568 201.538 90.2533 201.304 90.008C201.069 89.7627 200.76 89.64 200.376 89.64C199.986 89.64 199.674 89.7627 199.44 90.008C199.205 90.2533 199.088 90.568 199.088 90.952C199.088 91.3413 199.205 91.6587 199.44 91.904C199.674 92.1493 199.986 92.272 200.376 92.272ZM199.712 91.792V90.08H200.512C200.688 90.08 200.829 90.128 200.936 90.224C201.042 90.32 201.096 90.4507 201.096 90.616C201.096 90.8773 200.97 91.0453 200.72 91.12L201.168 91.792H200.672L200.28 91.144H200.136V91.792H199.712ZM200.136 90.824H200.456C200.514 90.824 200.565 90.8107 200.608 90.784C200.65 90.752 200.672 90.7013 200.672 90.632C200.672 90.568 200.65 90.5227 200.608 90.496C200.565 90.4693 200.514 90.456 200.456 90.456H200.136V90.824ZM204.974 95V89.4H207.086C207.668 89.4 208.108 89.536 208.406 89.808C208.705 90.08 208.854 90.4213 208.854 90.832C208.854 91.1893 208.758 91.4747 208.566 91.688C208.374 91.896 208.142 92.0373 207.87 92.112C208.084 92.1547 208.273 92.24 208.438 92.368C208.609 92.496 208.742 92.656 208.838 92.848C208.934 93.04 208.982 93.248 208.982 93.472C208.982 93.76 208.91 94.0213 208.766 94.256C208.628 94.4853 208.422 94.6667 208.15 94.8C207.878 94.9333 207.545 95 207.15 95H204.974ZM205.822 91.8H206.982C207.308 91.8 207.556 91.7253 207.726 91.576C207.897 91.4213 207.982 91.2107 207.982 90.944C207.982 90.6827 207.897 90.4747 207.726 90.32C207.561 90.1653 207.308 90.088 206.966 90.088H205.822V91.8ZM205.822 94.304H207.038C207.38 94.304 207.644 94.224 207.83 94.064C208.022 93.904 208.118 93.68 208.118 93.392C208.118 93.104 208.02 92.8773 207.822 92.712C207.625 92.5413 207.358 92.456 207.022 92.456H205.822V94.304ZM211.224 95.096C210.888 95.096 210.61 95.04 210.392 94.928C210.173 94.816 210.01 94.6693 209.904 94.488C209.797 94.3013 209.744 94.0987 209.744 93.88C209.744 93.496 209.893 93.192 210.192 92.968C210.49 92.744 210.917 92.632 211.472 92.632H212.512V92.56C212.512 92.2507 212.426 92.0187 212.256 91.864C212.09 91.7093 211.874 91.632 211.608 91.632C211.373 91.632 211.168 91.6907 210.992 91.808C210.821 91.92 210.717 92.088 210.68 92.312H209.832C209.858 92.024 209.954 91.7787 210.12 91.576C210.29 91.368 210.504 91.2107 210.76 91.104C211.021 90.992 211.306 90.936 211.616 90.936C212.17 90.936 212.6 91.0827 212.904 91.376C213.208 91.664 213.36 92.0587 213.36 92.56V95H212.624L212.552 94.32C212.44 94.5387 212.277 94.7227 212.064 94.872C211.85 95.0213 211.57 95.096 211.224 95.096ZM211.392 94.408C211.621 94.408 211.813 94.3547 211.968 94.248C212.128 94.136 212.25 93.9893 212.336 93.808C212.426 93.6267 212.482 93.4267 212.504 93.208H211.56C211.224 93.208 210.984 93.2667 210.84 93.384C210.701 93.5013 210.632 93.648 210.632 93.824C210.632 94.0053 210.698 94.1493 210.832 94.256C210.97 94.3573 211.157 94.408 211.392 94.408ZM215.934 95C215.545 95 215.236 94.9067 215.006 94.72C214.777 94.528 214.662 94.1893 214.662 93.704V91.744H213.982V91.032H214.662L214.766 90.024H215.51V91.032H216.63V91.744H215.51V93.704C215.51 93.9227 215.556 94.0747 215.646 94.16C215.742 94.24 215.905 94.28 216.134 94.28H216.59V95H215.934ZM218.849 95.096C218.513 95.096 218.235 95.04 218.017 94.928C217.798 94.816 217.635 94.6693 217.529 94.488C217.422 94.3013 217.369 94.0987 217.369 93.88C217.369 93.496 217.518 93.192 217.817 92.968C218.115 92.744 218.542 92.632 219.097 92.632H220.137V92.56C220.137 92.2507 220.051 92.0187 219.881 91.864C219.715 91.7093 219.499 91.632 219.233 91.632C218.998 91.632 218.793 91.6907 218.617 91.808C218.446 91.92 218.342 92.088 218.305 92.312H217.457C217.483 92.024 217.579 91.7787 217.745 91.576C217.915 91.368 218.129 91.2107 218.385 91.104C218.646 90.992 218.931 90.936 219.241 90.936C219.795 90.936 220.225 91.0827 220.529 91.376C220.833 91.664 220.985 92.0587 220.985 92.56V95H220.249L220.177 94.32C220.065 94.5387 219.902 94.7227 219.689 94.872C219.475 95.0213 219.195 95.096 218.849 95.096ZM219.017 94.408C219.246 94.408 219.438 94.3547 219.593 94.248C219.753 94.136 219.875 93.9893 219.961 93.808C220.051 93.6267 220.107 93.4267 220.129 93.208H219.185C218.849 93.208 218.609 93.2667 218.465 93.384C218.326 93.5013 218.257 93.648 218.257 93.824C218.257 94.0053 218.323 94.1493 218.457 94.256C218.595 94.3573 218.782 94.408 219.017 94.408ZM223.559 95C223.17 95 222.861 94.9067 222.631 94.72C222.402 94.528 222.287 94.1893 222.287 93.704V91.744H221.607V91.032H222.287L222.391 90.024H223.135V91.032H224.255V91.744H223.135V93.704C223.135 93.9227 223.181 94.0747 223.271 94.16C223.367 94.24 223.53 94.28 223.759 94.28H224.215V95H223.559ZM226.474 95.096C226.138 95.096 225.86 95.04 225.642 94.928C225.423 94.816 225.26 94.6693 225.154 94.488C225.047 94.3013 224.994 94.0987 224.994 93.88C224.994 93.496 225.143 93.192 225.442 92.968C225.74 92.744 226.167 92.632 226.722 92.632H227.762V92.56C227.762 92.2507 227.676 92.0187 227.506 91.864C227.34 91.7093 227.124 91.632 226.858 91.632C226.623 91.632 226.418 91.6907 226.242 91.808C226.071 91.92 225.967 92.088 225.93 92.312H225.082C225.108 92.024 225.204 91.7787 225.37 91.576C225.54 91.368 225.754 91.2107 226.01 91.104C226.271 90.992 226.556 90.936 226.866 90.936C227.42 90.936 227.85 91.0827 228.154 91.376C228.458 91.664 228.61 92.0587 228.61 92.56V95H227.874L227.802 94.32C227.69 94.5387 227.527 94.7227 227.314 94.872C227.1 95.0213 226.82 95.096 226.474 95.096ZM226.642 94.408C226.871 94.408 227.063 94.3547 227.218 94.248C227.378 94.136 227.5 93.9893 227.586 93.808C227.676 93.6267 227.732 93.4267 227.754 93.208H226.81C226.474 93.208 226.234 93.2667 226.09 93.384C225.951 93.5013 225.882 93.648 225.882 93.824C225.882 94.0053 225.948 94.1493 226.082 94.256C226.22 94.3573 226.407 94.408 226.642 94.408ZM231.831 95.096C231.521 95.096 231.247 95.0347 231.007 94.912C230.772 94.7893 230.585 94.616 230.447 94.392L230.359 95H229.599V89.24H230.447V91.648C230.575 91.4613 230.751 91.296 230.975 91.152C231.199 91.008 231.487 90.936 231.839 90.936C232.223 90.936 232.561 91.0267 232.855 91.208C233.148 91.3893 233.377 91.6373 233.543 91.952C233.713 92.2667 233.799 92.624 233.799 93.024C233.799 93.424 233.713 93.7813 233.543 94.096C233.377 94.4053 233.148 94.6507 232.855 94.832C232.561 95.008 232.22 95.096 231.831 95.096ZM231.687 94.36C232.049 94.36 232.348 94.2373 232.583 93.992C232.817 93.7413 232.935 93.416 232.935 93.016C232.935 92.7547 232.881 92.5227 232.775 92.32C232.668 92.1173 232.521 91.96 232.335 91.848C232.148 91.7307 231.932 91.672 231.687 91.672C231.324 91.672 231.025 91.7973 230.791 92.048C230.561 92.2987 230.447 92.6213 230.447 93.016C230.447 93.416 230.561 93.7413 230.791 93.992C231.025 94.2373 231.324 94.36 231.687 94.36ZM235.196 90.28C235.036 90.28 234.902 90.232 234.796 90.136C234.694 90.0347 234.644 89.9093 234.644 89.76C234.644 89.6107 234.694 89.488 234.796 89.392C234.902 89.2907 235.036 89.24 235.196 89.24C235.356 89.24 235.486 89.2907 235.588 89.392C235.694 89.488 235.748 89.6107 235.748 89.76C235.748 89.9093 235.694 90.0347 235.588 90.136C235.486 90.232 235.356 90.28 235.196 90.28ZM234.772 95V91.032H235.62V95H234.772ZM238.403 95C238.014 95 237.704 94.9067 237.475 94.72C237.246 94.528 237.131 94.1893 237.131 93.704V91.744H236.451V91.032H237.131L237.235 90.024H237.979V91.032H239.099V91.744H237.979V93.704C237.979 93.9227 238.024 94.0747 238.115 94.16C238.211 94.24 238.374 94.28 238.603 94.28H239.059V95H238.403ZM241.909 95V94.392C242.272 94.104 242.618 93.8133 242.949 93.52C243.28 93.2267 243.573 92.9387 243.829 92.656C244.09 92.368 244.296 92.088 244.445 91.816C244.594 91.5387 244.669 91.272 244.669 91.016C244.669 90.8453 244.64 90.6853 244.581 90.536C244.522 90.3813 244.426 90.2587 244.293 90.168C244.16 90.072 243.981 90.024 243.757 90.024C243.421 90.024 243.168 90.1307 242.997 90.344C242.832 90.5573 242.752 90.8133 242.757 91.112H241.933C241.938 90.7173 242.021 90.3867 242.181 90.12C242.346 89.8533 242.565 89.6507 242.837 89.512C243.114 89.3733 243.426 89.304 243.773 89.304C244.301 89.304 244.722 89.4533 245.037 89.752C245.357 90.0453 245.517 90.456 245.517 90.984C245.517 91.2987 245.44 91.6107 245.285 91.92C245.136 92.2293 244.938 92.528 244.693 92.816C244.453 93.0987 244.194 93.3653 243.917 93.616C243.64 93.8667 243.376 94.0933 243.125 94.296H245.685V95H241.909ZM248.777 95.096C248.27 95.096 247.833 94.976 247.465 94.736C247.102 94.4907 246.822 94.152 246.625 93.72C246.433 93.2827 246.337 92.776 246.337 92.2C246.337 91.624 246.433 91.12 246.625 90.688C246.822 90.2507 247.102 89.912 247.465 89.672C247.833 89.4267 248.27 89.304 248.777 89.304C249.283 89.304 249.718 89.4267 250.081 89.672C250.443 89.912 250.721 90.2507 250.913 90.688C251.11 91.12 251.209 91.624 251.209 92.2C251.209 92.776 251.11 93.2827 250.913 93.72C250.721 94.152 250.443 94.4907 250.081 94.736C249.718 94.976 249.283 95.096 248.777 95.096ZM248.777 94.336C249.081 94.336 249.35 94.2507 249.585 94.08C249.825 93.9093 250.011 93.664 250.145 93.344C250.278 93.024 250.345 92.6427 250.345 92.2C250.345 91.7573 250.278 91.376 250.145 91.056C250.011 90.736 249.825 90.4907 249.585 90.32C249.35 90.1493 249.081 90.064 248.777 90.064C248.467 90.064 248.195 90.1493 247.961 90.32C247.726 90.4907 247.542 90.736 247.409 91.056C247.275 91.376 247.209 91.7573 247.209 92.2C247.209 92.6427 247.275 93.024 247.409 93.344C247.542 93.664 247.726 93.9093 247.961 94.08C248.195 94.2507 248.467 94.336 248.777 94.336ZM251.979 95V94.392C252.342 94.104 252.689 93.8133 253.019 93.52C253.35 93.2267 253.643 92.9387 253.899 92.656C254.161 92.368 254.366 92.088 254.515 91.816C254.665 91.5387 254.739 91.272 254.739 91.016C254.739 90.8453 254.71 90.6853 254.651 90.536C254.593 90.3813 254.497 90.2587 254.363 90.168C254.23 90.072 254.051 90.024 253.827 90.024C253.491 90.024 253.238 90.1307 253.067 90.344C252.902 90.5573 252.822 90.8133 252.827 91.112H252.003C252.009 90.7173 252.091 90.3867 252.251 90.12C252.417 89.8533 252.635 89.6507 252.907 89.512C253.185 89.3733 253.497 89.304 253.843 89.304C254.371 89.304 254.793 89.4533 255.107 89.752C255.427 90.0453 255.587 90.456 255.587 90.984C255.587 91.2987 255.51 91.6107 255.355 91.92C255.206 92.2293 255.009 92.528 254.763 92.816C254.523 93.0987 254.265 93.3653 253.987 93.616C253.71 93.8667 253.446 94.0933 253.195 94.296H255.755V95H251.979ZM258.847 95.096C258.34 95.096 257.903 94.976 257.535 94.736C257.172 94.4907 256.892 94.152 256.695 93.72C256.503 93.2827 256.407 92.776 256.407 92.2C256.407 91.624 256.503 91.12 256.695 90.688C256.892 90.2507 257.172 89.912 257.535 89.672C257.903 89.4267 258.34 89.304 258.847 89.304C259.354 89.304 259.788 89.4267 260.151 89.672C260.514 89.912 260.791 90.2507 260.983 90.688C261.18 91.12 261.279 91.624 261.279 92.2C261.279 92.776 261.18 93.2827 260.983 93.72C260.791 94.152 260.514 94.4907 260.151 94.736C259.788 94.976 259.354 95.096 258.847 95.096ZM258.847 94.336C259.151 94.336 259.42 94.2507 259.655 94.08C259.895 93.9093 260.082 93.664 260.215 93.344C260.348 93.024 260.415 92.6427 260.415 92.2C260.415 91.7573 260.348 91.376 260.215 91.056C260.082 90.736 259.895 90.4907 259.655 90.32C259.42 90.1493 259.151 90.064 258.847 90.064C258.538 90.064 258.266 90.1493 258.031 90.32C257.796 90.4907 257.612 90.736 257.479 91.056C257.346 91.376 257.279 91.7573 257.279 92.2C257.279 92.6427 257.346 93.024 257.479 93.344C257.612 93.664 257.796 93.9093 258.031 94.08C258.266 94.2507 258.538 94.336 258.847 94.336Z" fill="#FFE9D5"/>
<path d="M226.891 71.2838C220.467 73.281 210.093 71.2399 210.001 62.3449C209.908 53.4498 220.981 58.7485 220.981 58.7485L226.891 71.2838Z" fill="#FFC250"/>
<path d="M213.124 57.3543C217.607 56.5861 221.011 62.5265 224.778 68.7232C228.545 74.92 238.354 77.3762 244.622 72.165C250.889 66.9539 253.542 57.8271 245.846 52.3832C238.151 46.9392 233.347 59.2987 226.722 59.6385C220.097 59.9782 220.049 55.0537 213.124 57.3543Z" fill="#FFD064"/>
<circle cx="245.197" cy="62.6219" r="1.96745" fill="#FFE19D"/>
<circle cx="241.426" cy="64.0974" r="1.47559" fill="#FFE19D"/>
<circle cx="244.05" cy="66.0648" r="1.14768" fill="#FFE19D"/>
<path d="M66.3768 54V44.2H67.8608V52.824H72.3128V54H66.3768ZM74.694 45.74C74.414 45.74 74.1807 45.656 73.994 45.488C73.8167 45.3107 73.728 45.0913 73.728 44.83C73.728 44.5687 73.8167 44.354 73.994 44.186C74.1807 44.0087 74.414 43.92 74.694 43.92C74.974 43.92 75.2027 44.0087 75.38 44.186C75.5667 44.354 75.66 44.5687 75.66 44.83C75.66 45.0913 75.5667 45.3107 75.38 45.488C75.2027 45.656 74.974 45.74 74.694 45.74ZM73.952 54V47.056H75.436V54H73.952ZM77.395 54V47.056H78.711L78.823 48.274C79.0377 47.8447 79.3504 47.5087 79.761 47.266C80.181 47.014 80.6617 46.888 81.203 46.888C82.043 46.888 82.701 47.1493 83.177 47.672C83.6624 48.1947 83.905 48.974 83.905 50.01V54H82.435V50.164C82.435 48.82 81.8844 48.148 80.783 48.148C80.2324 48.148 79.775 48.344 79.411 48.736C79.0564 49.128 78.879 49.688 78.879 50.416V54H77.395ZM85.6528 54V43.92H87.1368V49.926L89.7968 47.056H91.5748L88.6208 50.206L92.0088 54H90.1328L87.1368 50.444V54H85.6528ZM95.8735 54.168C95.1922 54.168 94.5855 54.0187 94.0535 53.72C93.5308 53.412 93.1202 52.9873 92.8215 52.446C92.5228 51.9047 92.3735 51.2747 92.3735 50.556C92.3735 49.828 92.5182 49.1887 92.8075 48.638C93.1062 48.0873 93.5168 47.658 94.0395 47.35C94.5715 47.042 95.1875 46.888 95.8875 46.888C96.5688 46.888 97.1615 47.042 97.6655 47.35C98.1695 47.6487 98.5615 48.05 98.8415 48.554C99.1215 49.058 99.2615 49.6133 99.2615 50.22C99.2615 50.3133 99.2568 50.416 99.2475 50.528C99.2475 50.6307 99.2428 50.7473 99.2335 50.878H93.8295C93.8762 51.55 94.0955 52.0633 94.4875 52.418C94.8888 52.7633 95.3508 52.936 95.8735 52.936C96.2935 52.936 96.6435 52.8427 96.9235 52.656C97.2128 52.46 97.4275 52.1987 97.5675 51.872H99.0515C98.8648 52.5253 98.4915 53.0713 97.9315 53.51C97.3808 53.9487 96.6948 54.168 95.8735 54.168ZM95.8735 48.106C95.3788 48.106 94.9402 48.2553 94.5575 48.554C94.1748 48.8433 93.9415 49.282 93.8575 49.87H97.7775C97.7495 49.3287 97.5582 48.8993 97.2035 48.582C96.8488 48.2647 96.4055 48.106 95.8735 48.106ZM103.965 54.168C103.293 54.168 102.701 54.0093 102.187 53.692C101.674 53.3747 101.273 52.9407 100.983 52.39C100.694 51.8393 100.549 51.214 100.549 50.514C100.549 49.814 100.694 49.1933 100.983 48.652C101.273 48.1013 101.674 47.672 102.187 47.364C102.71 47.0467 103.307 46.888 103.979 46.888C104.53 46.888 105.011 46.9953 105.421 47.21C105.841 47.4247 106.168 47.728 106.401 48.12V43.92H107.885V54H106.555L106.401 52.922C106.177 53.2487 105.869 53.538 105.477 53.79C105.085 54.042 104.581 54.168 103.965 54.168ZM104.231 52.88C104.866 52.88 105.384 52.6607 105.785 52.222C106.196 51.7833 106.401 51.2187 106.401 50.528C106.401 49.828 106.196 49.2633 105.785 48.834C105.384 48.3953 104.866 48.176 104.231 48.176C103.597 48.176 103.074 48.3953 102.663 48.834C102.253 49.2633 102.047 49.828 102.047 50.528C102.047 50.9853 102.141 51.3913 102.327 51.746C102.514 52.1007 102.771 52.3807 103.097 52.586C103.433 52.782 103.811 52.88 104.231 52.88ZM110.596 45.74C110.316 45.74 110.083 45.656 109.896 45.488C109.719 45.3107 109.63 45.0913 109.63 44.83C109.63 44.5687 109.719 44.354 109.896 44.186C110.083 44.0087 110.316 43.92 110.596 43.92C110.876 43.92 111.105 44.0087 111.282 44.186C111.469 44.354 111.562 44.5687 111.562 44.83C111.562 45.0913 111.469 45.3107 111.282 45.488C111.105 45.656 110.876 45.74 110.596 45.74ZM109.854 54V47.056H111.338V54H109.854ZM113.297 54V47.056H114.613L114.725 48.274C114.94 47.8447 115.253 47.5087 115.663 47.266C116.083 47.014 116.564 46.888 117.105 46.888C117.945 46.888 118.603 47.1493 119.079 47.672C119.565 48.1947 119.807 48.974 119.807 50.01V54H118.337V50.164C118.337 48.82 117.787 48.148 116.685 48.148C116.135 48.148 115.677 48.344 115.313 48.736C114.959 49.128 114.781 49.688 114.781 50.416V54H113.297Z" fill="white"/>
<path d="M70.5641 80.168C69.5935 80.168 68.7535 79.958 68.0441 79.538C67.3441 79.1087 66.8028 78.516 66.4201 77.76C66.0375 76.9947 65.8461 76.1127 65.8461 75.114C65.8461 74.106 66.0375 73.224 66.4201 72.468C66.8028 71.7027 67.3441 71.1053 68.0441 70.676C68.7535 70.2467 69.5935 70.032 70.5641 70.032C71.7121 70.032 72.6501 70.312 73.3781 70.872C74.1061 71.432 74.5681 72.216 74.7641 73.224H73.1121C72.9815 72.6547 72.7015 72.202 72.2721 71.866C71.8428 71.53 71.2688 71.362 70.5501 71.362C69.5701 71.362 68.7955 71.698 68.2261 72.37C67.6568 73.0327 67.3721 73.9473 67.3721 75.114C67.3721 76.2713 67.6568 77.1813 68.2261 77.844C68.7955 78.5067 69.5701 78.838 70.5501 78.838C71.2688 78.838 71.8428 78.6793 72.2721 78.362C72.7015 78.0447 72.9815 77.6107 73.1121 77.06H74.7641C74.5681 78.0307 74.1061 78.7913 73.3781 79.342C72.6501 79.8927 71.7121 80.168 70.5641 80.168ZM76.3394 80V73.056H77.6694L77.7954 74.372C78.038 73.9147 78.374 73.5553 78.8034 73.294C79.242 73.0233 79.7694 72.888 80.3854 72.888V74.442H79.9794C79.5687 74.442 79.2 74.512 78.8734 74.652C78.556 74.7827 78.2994 75.0113 78.1034 75.338C77.9167 75.6553 77.8234 76.0987 77.8234 76.668V80H76.3394ZM88.0417 73.056V80H86.7257L86.6137 78.782C86.3991 79.2113 86.0817 79.552 85.6617 79.804C85.2511 80.0467 84.7751 80.168 84.2337 80.168C83.3937 80.168 82.7311 79.9067 82.2457 79.384C81.7697 78.8613 81.5317 78.082 81.5317 77.046V73.056H83.0017V76.892C83.0017 78.236 83.5524 78.908 84.6537 78.908C85.2044 78.908 85.6571 78.712 86.0117 78.32C86.3757 77.928 86.5577 77.368 86.5577 76.64V73.056H88.0417ZM89.9155 80V73.056H91.2315L91.3435 74.274C91.5582 73.8447 91.8709 73.5087 92.2815 73.266C92.7015 73.014 93.1822 72.888 93.7235 72.888C94.5635 72.888 95.2215 73.1493 95.6975 73.672C96.1829 74.1947 96.4255 74.974 96.4255 76.01V80H94.9555V76.164C94.9555 74.82 94.4049 74.148 93.3035 74.148C92.7529 74.148 92.2955 74.344 91.9315 74.736C91.5769 75.128 91.3995 75.688 91.3995 76.416V80H89.9155ZM101.463 80.168C100.782 80.168 100.171 80.014 99.6294 79.706C99.0974 79.398 98.6774 78.9733 98.3694 78.432C98.0707 77.8813 97.9214 77.2467 97.9214 76.528C97.9214 75.8093 98.0707 75.1793 98.3694 74.638C98.6774 74.0873 99.0974 73.658 99.6294 73.35C100.171 73.042 100.782 72.888 101.463 72.888C102.322 72.888 103.041 73.112 103.619 73.56C104.207 74.008 104.585 74.6147 104.753 75.38H103.199C103.106 74.9973 102.901 74.6987 102.583 74.484C102.266 74.2693 101.893 74.162 101.463 74.162C101.099 74.162 100.763 74.2553 100.455 74.442C100.147 74.6193 99.9 74.8853 99.7134 75.24C99.5267 75.5853 99.4334 76.0147 99.4334 76.528C99.4334 77.0413 99.5267 77.4753 99.7134 77.83C99.9 78.1753 100.147 78.4413 100.455 78.628C100.763 78.8147 101.099 78.908 101.463 78.908C101.893 78.908 102.266 78.8007 102.583 78.586C102.901 78.3713 103.106 78.068 103.199 77.676H104.753C104.595 78.4227 104.221 79.0247 103.633 79.482C103.045 79.9393 102.322 80.168 101.463 80.168ZM106.363 80V69.92H107.847V74.176C108.08 73.7747 108.402 73.462 108.813 73.238C109.233 73.0047 109.695 72.888 110.199 72.888C111.029 72.888 111.683 73.1493 112.159 73.672C112.635 74.1947 112.873 74.974 112.873 76.01V80H111.403V76.164C111.403 74.82 110.866 74.148 109.793 74.148C109.233 74.148 108.766 74.344 108.393 74.736C108.029 75.128 107.847 75.688 107.847 76.416V80H106.363ZM118.527 80.168C117.985 80.168 117.505 80.0607 117.085 79.846C116.674 79.6313 116.347 79.328 116.105 78.936L115.951 80H114.621V69.92H116.105V74.134C116.329 73.8073 116.637 73.518 117.029 73.266C117.421 73.014 117.925 72.888 118.541 72.888C119.213 72.888 119.805 73.0467 120.319 73.364C120.832 73.6813 121.233 74.1153 121.523 74.666C121.821 75.2167 121.971 75.842 121.971 76.542C121.971 77.242 121.821 77.8673 121.523 78.418C121.233 78.9593 120.832 79.3887 120.319 79.706C119.805 80.014 119.208 80.168 118.527 80.168ZM118.275 78.88C118.909 78.88 119.432 78.6653 119.843 78.236C120.253 77.7973 120.459 77.228 120.459 76.528C120.459 76.0707 120.365 75.6647 120.179 75.31C119.992 74.9553 119.735 74.68 119.409 74.484C119.082 74.2787 118.704 74.176 118.275 74.176C117.64 74.176 117.117 74.3953 116.707 74.834C116.305 75.2727 116.105 75.8373 116.105 76.528C116.105 77.228 116.305 77.7973 116.707 78.236C117.117 78.6653 117.64 78.88 118.275 78.88ZM125.928 80.168C125.34 80.168 124.854 80.07 124.472 79.874C124.089 79.678 123.804 79.4213 123.618 79.104C123.431 78.7773 123.338 78.4227 123.338 78.04C123.338 77.368 123.599 76.836 124.122 76.444C124.644 76.052 125.391 75.856 126.362 75.856H128.182V75.73C128.182 75.1887 128.032 74.7827 127.734 74.512C127.444 74.2413 127.066 74.106 126.6 74.106C126.189 74.106 125.83 74.2087 125.522 74.414C125.223 74.61 125.041 74.904 124.976 75.296H123.492C123.538 74.792 123.706 74.3627 123.996 74.008C124.294 73.644 124.668 73.3687 125.116 73.182C125.573 72.986 126.072 72.888 126.614 72.888C127.584 72.888 128.336 73.1447 128.868 73.658C129.4 74.162 129.666 74.8527 129.666 75.73V80H128.378L128.252 78.81C128.056 79.1927 127.771 79.5147 127.398 79.776C127.024 80.0373 126.534 80.168 125.928 80.168ZM126.222 78.964C126.623 78.964 126.959 78.8707 127.23 78.684C127.51 78.488 127.724 78.2313 127.874 77.914C128.032 77.5967 128.13 77.2467 128.168 76.864H126.516C125.928 76.864 125.508 76.9667 125.256 77.172C125.013 77.3773 124.892 77.634 124.892 77.942C124.892 78.2593 125.008 78.5113 125.242 78.698C125.484 78.8753 125.811 78.964 126.222 78.964ZM134.168 80.168C133.291 80.168 132.567 79.9533 131.998 79.524C131.429 79.0947 131.102 78.5253 131.018 77.816H132.516C132.591 78.1333 132.768 78.4087 133.048 78.642C133.328 78.866 133.697 78.978 134.154 78.978C134.602 78.978 134.929 78.8847 135.134 78.698C135.339 78.5113 135.442 78.2967 135.442 78.054C135.442 77.6993 135.297 77.4613 135.008 77.34C134.728 77.2093 134.336 77.0927 133.832 76.99C133.44 76.906 133.048 76.794 132.656 76.654C132.273 76.514 131.951 76.318 131.69 76.066C131.438 75.8047 131.312 75.4547 131.312 75.016C131.312 74.4093 131.545 73.9053 132.012 73.504C132.479 73.0933 133.132 72.888 133.972 72.888C134.747 72.888 135.372 73.0747 135.848 73.448C136.333 73.8213 136.618 74.3487 136.702 75.03H135.274C135.227 74.7313 135.087 74.498 134.854 74.33C134.63 74.162 134.327 74.078 133.944 74.078C133.571 74.078 133.281 74.1573 133.076 74.316C132.871 74.4653 132.768 74.6613 132.768 74.904C132.768 75.1467 132.908 75.338 133.188 75.478C133.477 75.618 133.855 75.744 134.322 75.856C134.789 75.9587 135.218 76.08 135.61 76.22C136.011 76.3507 136.333 76.5467 136.576 76.808C136.819 77.0693 136.94 77.452 136.94 77.956C136.949 78.5907 136.702 79.118 136.198 79.538C135.703 79.958 135.027 80.168 134.168 80.168ZM141.808 80.168C141.127 80.168 140.52 80.0187 139.988 79.72C139.465 79.412 139.055 78.9873 138.756 78.446C138.457 77.9047 138.308 77.2747 138.308 76.556C138.308 75.828 138.453 75.1887 138.742 74.638C139.041 74.0873 139.451 73.658 139.974 73.35C140.506 73.042 141.122 72.888 141.822 72.888C142.503 72.888 143.096 73.042 143.6 73.35C144.104 73.6487 144.496 74.05 144.776 74.554C145.056 75.058 145.196 75.6133 145.196 76.22C145.196 76.3133 145.191 76.416 145.182 76.528C145.182 76.6307 145.177 76.7473 145.168 76.878H139.764C139.811 77.55 140.03 78.0633 140.422 78.418C140.823 78.7633 141.285 78.936 141.808 78.936C142.228 78.936 142.578 78.8427 142.858 78.656C143.147 78.46 143.362 78.1987 143.502 77.872H144.986C144.799 78.5253 144.426 79.0713 143.866 79.51C143.315 79.9487 142.629 80.168 141.808 80.168ZM141.808 74.106C141.313 74.106 140.875 74.2553 140.492 74.554C140.109 74.8433 139.876 75.282 139.792 75.87H143.712C143.684 75.3287 143.493 74.8993 143.138 74.582C142.783 74.2647 142.34 74.106 141.808 74.106Z" fill="white"/>
<path d="M66.2919 106V96.2H67.7759V100.4H72.5219V96.2H74.0059V106H72.5219V101.618H67.7759V106H66.2919ZM78.2949 106.168C77.7069 106.168 77.2215 106.07 76.8389 105.874C76.4562 105.678 76.1715 105.421 75.9849 105.104C75.7982 104.777 75.7049 104.423 75.7049 104.04C75.7049 103.368 75.9662 102.836 76.4889 102.444C77.0115 102.052 77.7582 101.856 78.7289 101.856H80.5489V101.73C80.5489 101.189 80.3995 100.783 80.1009 100.512C79.8115 100.241 79.4335 100.106 78.9669 100.106C78.5562 100.106 78.1969 100.209 77.8889 100.414C77.5902 100.61 77.4082 100.904 77.3429 101.296H75.8589C75.9055 100.792 76.0735 100.363 76.3629 100.008C76.6615 99.644 77.0349 99.3687 77.4829 99.182C77.9402 98.986 78.4395 98.888 78.9809 98.888C79.9515 98.888 80.7029 99.1447 81.2349 99.658C81.7669 100.162 82.0329 100.853 82.0329 101.73V106H80.7449L80.6189 104.81C80.4229 105.193 80.1382 105.515 79.7649 105.776C79.3915 106.037 78.9015 106.168 78.2949 106.168ZM78.5889 104.964C78.9902 104.964 79.3262 104.871 79.5969 104.684C79.8769 104.488 80.0915 104.231 80.2409 103.914C80.3995 103.597 80.4975 103.247 80.5349 102.864H78.8829C78.2949 102.864 77.8749 102.967 77.6229 103.172C77.3802 103.377 77.2589 103.634 77.2589 103.942C77.2589 104.259 77.3755 104.511 77.6089 104.698C77.8515 104.875 78.1782 104.964 78.5889 104.964ZM87.0532 106.168C86.3719 106.168 85.7605 106.014 85.2192 105.706C84.6872 105.398 84.2672 104.973 83.9592 104.432C83.6605 103.881 83.5112 103.247 83.5112 102.528C83.5112 101.809 83.6605 101.179 83.9592 100.638C84.2672 100.087 84.6872 99.658 85.2192 99.35C85.7605 99.042 86.3719 98.888 87.0532 98.888C87.9119 98.888 88.6305 99.112 89.2092 99.56C89.7972 100.008 90.1752 100.615 90.3432 101.38H88.7892C88.6959 100.997 88.4905 100.699 88.1732 100.484C87.8559 100.269 87.4825 100.162 87.0532 100.162C86.6892 100.162 86.3532 100.255 86.0452 100.442C85.7372 100.619 85.4899 100.885 85.3032 101.24C85.1165 101.585 85.0232 102.015 85.0232 102.528C85.0232 103.041 85.1165 103.475 85.3032 103.83C85.4899 104.175 85.7372 104.441 86.0452 104.628C86.3532 104.815 86.6892 104.908 87.0532 104.908C87.4825 104.908 87.8559 104.801 88.1732 104.586C88.4905 104.371 88.6959 104.068 88.7892 103.676H90.3432C90.1845 104.423 89.8112 105.025 89.2232 105.482C88.6352 105.939 87.9119 106.168 87.0532 106.168ZM91.9526 106V95.92H93.4366V101.926L96.0966 99.056H97.8746L94.9206 102.206L98.3086 106H96.4326L93.4366 102.444V106H91.9526ZM102.173 106.168C101.492 106.168 100.885 106.019 100.353 105.72C99.8306 105.412 99.42 104.987 99.1213 104.446C98.8226 103.905 98.6733 103.275 98.6733 102.556C98.6733 101.828 98.818 101.189 99.1073 100.638C99.406 100.087 99.8166 99.658 100.339 99.35C100.871 99.042 101.487 98.888 102.187 98.888C102.869 98.888 103.461 99.042 103.965 99.35C104.469 99.6487 104.861 100.05 105.141 100.554C105.421 101.058 105.561 101.613 105.561 102.22C105.561 102.313 105.557 102.416 105.547 102.528C105.547 102.631 105.543 102.747 105.533 102.878H100.129C100.176 103.55 100.395 104.063 100.787 104.418C101.189 104.763 101.651 104.936 102.173 104.936C102.593 104.936 102.943 104.843 103.223 104.656C103.513 104.46 103.727 104.199 103.867 103.872H105.351C105.165 104.525 104.791 105.071 104.231 105.51C103.681 105.949 102.995 106.168 102.173 106.168ZM102.173 100.106C101.679 100.106 101.24 100.255 100.857 100.554C100.475 100.843 100.241 101.282 100.157 101.87H104.077C104.049 101.329 103.858 100.899 103.503 100.582C103.149 100.265 102.705 100.106 102.173 100.106ZM107.101 106V99.056H108.431L108.557 100.372C108.8 99.9147 109.136 99.5553 109.565 99.294C110.004 99.0233 110.531 98.888 111.147 98.888V100.442H110.741C110.33 100.442 109.962 100.512 109.635 100.652C109.318 100.783 109.061 101.011 108.865 101.338C108.678 101.655 108.585 102.099 108.585 102.668V106H107.101ZM112.419 106V99.056H113.735L113.847 100.274C114.062 99.8447 114.375 99.5087 114.785 99.266C115.205 99.014 115.686 98.888 116.227 98.888C117.067 98.888 117.725 99.1493 118.201 99.672C118.687 100.195 118.929 100.974 118.929 102.01V106H117.459V102.164C117.459 100.82 116.909 100.148 115.807 100.148C115.257 100.148 114.799 100.344 114.435 100.736C114.081 101.128 113.903 101.688 113.903 102.416V106H112.419ZM123.925 106.168C123.244 106.168 122.637 106.019 122.105 105.72C121.583 105.412 121.172 104.987 120.873 104.446C120.575 103.905 120.425 103.275 120.425 102.556C120.425 101.828 120.57 101.189 120.859 100.638C121.158 100.087 121.569 99.658 122.091 99.35C122.623 99.042 123.239 98.888 123.939 98.888C124.621 98.888 125.213 99.042 125.717 99.35C126.221 99.6487 126.613 100.05 126.893 100.554C127.173 101.058 127.313 101.613 127.313 102.22C127.313 102.313 127.309 102.416 127.299 102.528C127.299 102.631 127.295 102.747 127.285 102.878H121.881C121.928 103.55 122.147 104.063 122.539 104.418C122.941 104.763 123.403 104.936 123.925 104.936C124.345 104.936 124.695 104.843 124.975 104.656C125.265 104.46 125.479 104.199 125.619 103.872H127.103C126.917 104.525 126.543 105.071 125.983 105.51C125.433 105.949 124.747 106.168 123.925 106.168ZM123.925 100.106C123.431 100.106 122.992 100.255 122.609 100.554C122.227 100.843 121.993 101.282 121.909 101.87H125.829C125.801 101.329 125.61 100.899 125.255 100.582C124.901 100.265 124.457 100.106 123.925 100.106ZM129.966 106L127.922 99.056H129.406L130.75 104.292L132.262 99.056H133.914L135.426 104.292L136.77 99.056H138.254L136.21 106H134.684L133.088 100.54L131.492 106H129.966ZM142.248 106.168C141.371 106.168 140.647 105.953 140.078 105.524C139.509 105.095 139.182 104.525 139.098 103.816H140.596C140.671 104.133 140.848 104.409 141.128 104.642C141.408 104.866 141.777 104.978 142.234 104.978C142.682 104.978 143.009 104.885 143.214 104.698C143.419 104.511 143.522 104.297 143.522 104.054C143.522 103.699 143.377 103.461 143.088 103.34C142.808 103.209 142.416 103.093 141.912 102.99C141.52 102.906 141.128 102.794 140.736 102.654C140.353 102.514 140.031 102.318 139.77 102.066C139.518 101.805 139.392 101.455 139.392 101.016C139.392 100.409 139.625 99.9053 140.092 99.504C140.559 99.0933 141.212 98.888 142.052 98.888C142.827 98.888 143.452 99.0747 143.928 99.448C144.413 99.8213 144.698 100.349 144.782 101.03H143.354C143.307 100.731 143.167 100.498 142.934 100.33C142.71 100.162 142.407 100.078 142.024 100.078C141.651 100.078 141.361 100.157 141.156 100.316C140.951 100.465 140.848 100.661 140.848 100.904C140.848 101.147 140.988 101.338 141.268 101.478C141.557 101.618 141.935 101.744 142.402 101.856C142.869 101.959 143.298 102.08 143.69 102.22C144.091 102.351 144.413 102.547 144.656 102.808C144.899 103.069 145.02 103.452 145.02 103.956C145.029 104.591 144.782 105.118 144.278 105.538C143.783 105.958 143.107 106.168 142.248 106.168Z" fill="white"/>
</svg>
